<svg width="800" height="800" xmlns="http://www.w3.org/2000/svg">
  <g>
    <title>Layer 1</title>
    <g id="svg_6">
      <path id="svg_4" fill="none" d="m-433.33325,-533.33325l1666.66654,0l0,1666.66654l-1666.66654,0l0,-1666.66654z" />
      <ellipse stroke="null" ry="399" rx="399.49999" id="svg_7" cy="399.77083" cx="399.99999" stroke-opacity="null" stroke-width="null" fill="#3B22A8" />
      <path fill="#ffffff" stroke="null" id="svg_5" d="m500.43649,179.24059l-200.87297,-0.20087c-22.09603,0 -40.17459,18.07857 -40.17459,40.17459l0,361.57135c0,22.09603 18.07857,40.17459 40.17459,40.17459l200.87297,0c22.09603,0 40.17459,-18.07857 40.17459,-40.17459l0,-361.57135c0,-22.09603 -18.07857,-39.97372 -40.17459,-39.97372zm0,361.37048l-200.87297,0l0,-281.22216l200.87297,0l0,281.22216zm-20.0873,-120.52378l-60.26189,0l0,-100.43649l-40.17459,0l0,100.43649l-60.26189,0l80.34919,80.34919l80.34919,-80.34919z" />
    </g>
  </g>
</svg>